Coordinates
version=1
nRows=24
nColumns=29
inDegrees=yes

Units are S.I. units (second, meters, Newtons, ...)
If the header above contains a line with 'inDegrees', this indicates whether rotational values are in degrees (yes) or radians (no).

endheader
time	bJoint_3	seatpos	slocangle	soarinout	sblpos	plocangle	poarinout	pblpos	hipangle	kneeangle	footangle	lbackangle	uarmleft_up	uarmleft_out	uarmleft_trn	se_inout	se_updown	handleleft_out	handleleft_trn	handleleft_up	uarmright_up	uarmright_out	uarmright_trn	pe_inout	pe_updown	handleright_out	handleright_trn	handleright_up
      1.74000000	     -0.00130728	     -0.10492561	      9.26665778	     20.59258362	    -20.59258362	      8.20244190	     19.70347000	    -19.70347000	     67.43521203	     54.30058725	     31.73579928	     -9.70020958	      7.04533135	     27.27616380	     11.68527337	      5.13734722	      4.51626292	     34.40309510	     14.44135354	      3.40510010	     11.42183989	     28.10202937	     12.36845052	      5.25780640	      4.12103639	    -35.01708739	    -16.45665249	      6.18140849
      1.74500000	     -0.00141560	     -0.10785928	      9.84662967	     20.56524578	    -20.56524578	      8.78429399	     19.68782765	    -19.68782765	     67.02657468	     55.08739808	     32.11397275	     -9.29901015	      6.76178834	     27.22317011	     11.65829538	      5.36210430	      4.33756009	     34.72361691	     14.40300535	      3.19191464	     10.98025315	     27.93073006	     12.25947937	      5.18204453	      4.12551475	    -35.49910422	    -16.41187335	      6.00477756
      1.75000000	     -0.00148819	     -0.11090234	     10.41969262	     20.57870039	    -20.57870039	      9.33755100	     19.67801601	    -19.67801601	     66.60855008	     55.89272300	     32.50127308	     -8.95007324	      6.33803487	     26.98745572	     11.55345104	      5.24313033	      4.30807643	     35.16543175	     14.33101257	      2.99034427	     10.51684628	     27.67568929	     12.12519273	      4.92540421	      4.20924655	    -36.04004141	    -16.36562251	      5.84952133
      1.75500000	     -0.00158877	     -0.11380299	     11.03737918	     20.56742104	    -20.56742104	      9.95722689	     19.68985058	    -19.68985058	     66.21539315	     56.65054754	     32.86594070	     -8.52627602	      5.84810283	     26.79783691	     11.45707042	      5.22081144	      4.34563551	     35.60349607	     14.26461155	      2.83665078	     10.00612324	     27.63953772	     12.01248227	      5.21368620	      4.26398177	    -36.30471558	    -16.26850517	      5.72761604
      1.76000000	     -0.00167114	     -0.11669395	     11.61087735	     20.56883380	    -20.56883380	     10.51443827	     19.67632217	    -19.67632217	     65.82850944	     57.39666901	     33.22517845	     -8.16409318	      5.36067855	     26.54154156	     11.34110202	      5.05837186	      4.42834998	     36.06170229	     14.19251677	      2.69600552	      9.51724800	     27.41679930	     11.88178186	      5.05104138	      4.38790460	    -36.78286105	    -16.21319852	      5.61006181
      1.76500000	     -0.00176874	     -0.12058370	     12.23842631	     20.57440215	    -20.57440215	     11.14398365	     19.68361734	    -19.68361734	     65.31543115	     58.38676037	     33.70219152	     -7.82722346	      4.94302527	     26.49384424	     11.25582848	      5.38938317	      4.51331125	     36.28283526	     14.10185564	      2.60980479	      9.09639758	     27.24129658	     11.75823577	      5.10439633	      4.39494018	    -37.16094729	    -16.12861032	      5.43849890
      1.77000000	     -0.00184826	     -0.12344126	     12.84593493	     20.55928257	    -20.55928257	     11.76508047	     19.69123845	    -19.69123845	     64.94373501	     59.10445447	     34.04818948	     -7.41848395	      4.41720807	     26.34205813	     11.15642931	      5.47222196	      4.66339891	     36.63104398	     14.02757096	      2.53637293	      8.57426557	     27.01741848	     11.62536035	      5.07194028	      4.41393771	    -37.56483471	    -16.04356603	      5.25675691
      1.77500000	     -0.00196989	     -0.12633677	     13.47720532	     20.55478065	    -20.55478065	     12.37965814	     19.66968036	    -19.66968036	     64.57144317	     59.82366318	     34.39510635	     -7.01137189	      4.04770442	     26.02528018	     11.08289647	      5.34928045	      4.42224309	     37.07485091	     13.96213755	      2.22372706	      8.18630781	     26.69003205	     11.52569761	      4.85057804	      4.23055295	    -38.08254001	    -15.99886635	      4.96305259
      1.78000000	     -0.00207262	     -0.12914893	     14.11191671	     20.55052545	    -20.55052545	     13.00407282	     19.66993197	    -19.66993197	     64.21390271	     60.51472021	     34.72862291	     -6.59867462	      3.51867868	     25.61879208	     10.95848394	      5.01477650	      4.42244011	     37.62121058	     13.88520821	      2.00798819	      7.64997809	     26.48372837	     11.39761849	      4.88211720	      4.29004603	    -38.44002356	    -15.90862341	      4.81693655
      1.78500000	     -0.00218009	     -0.13315569	     14.74466883	     20.54617791	    -20.54617791	     13.63573811	     19.67112762	    -19.67112762	     63.71108267	     61.48715239	     35.19823506	     -6.28441114	      3.11942555	     25.43717373	     10.86745578	      5.15256061	      4.48316005	     37.91127803	     13.80041654	      1.89756709	      7.24364295	     26.30480308	     11.28146477	      5.00450259	      4.32373694	    -38.74367828	    -15.81557413	      4.68219005
      1.79000000	     -0.00230338	     -0.13592780	     15.39403849	     20.52155413	    -20.52155413	     14.28083438	     19.64773586	    -19.64773586	     63.36757658	     62.15186989	     35.51944647	     -5.83945825	      2.45697963	     25.17290655	     10.73615183	      5.08281880	      4.78069668	     38.32725829	     13.71556585	      1.87684731	      6.57643415	     26.03799620	     11.12527305	      4.89793279	      4.59852853	    -39.18974687	    -15.72982035	      4.63519366
      1.79500000	     -0.00235480	     -0.13991018	     16.03613055	     20.54209155	    -20.54209155	     14.92206452	     19.67059760	    -19.67059760	     62.88010088	     63.09573290	     35.97583378	     -5.54718986	      2.27962527	     24.91765510	     10.69345689	      5.24815300	      4.36559017	     38.55539936	     13.63142746	      1.51334302	      6.38474165	     25.78022697	     11.05488347	      5.03233694	      4.17433430	    -39.44045314	    -15.63980825	      4.25716663
      1.80000000	     -0.00250421	     -0.14268856	     16.72277236	     20.52605810	    -20.52605810	     15.60153792	     19.66365998	    -19.66365998	     62.54405409	     63.74677526	     36.29082936	     -5.08876326	      1.63747926	     24.47952904	     10.55590191	      4.94479470	      4.49545246	     39.07768214	     13.54179529	      1.36463818	      5.72792632	     25.54925891	     10.90936270	      5.11590157	      4.35847549	    -39.76086115	    -15.53112159	      4.17441845
      1.80500000	     -0.00257332	     -0.14691523	     17.39239232	     20.52352875	    -20.52352875	     16.27630594	     19.66405117	    -19.66405117	     62.03895775	     64.72591518	     36.76487294	     -4.77578208	      1.17703505	     24.24112613	     10.44861689	      5.07555787	      4.64185074	     39.34215278	     13.44432437	      1.29671721	      5.25542843	     25.15977389	     10.75778990	      4.92540737	      4.42510176	    -40.20503354	    -15.43535259	      4.01147117
      1.81000000	     -0.00270915	     -0.14961283	     18.07915700	     20.53500600	    -20.53500600	     16.93958950	     19.65476110	    -19.65476110	     61.72030997	     65.34398672	     37.06429670	     -4.33613435	      0.56229496	     23.84571274	     10.31950985	      4.95958539	      4.69135082	     39.71210540	     13.33761693	      1.11834486	      4.63239795	     24.92175786	     10.62372582	      5.03129891	      4.58464178	    -40.48196767	    -15.32871176	      3.92838569
      1.81500000	     -0.00282831	     -0.15330543	     18.76533944	     20.51287612	    -20.51287612	     17.64948524	     19.65749898	    -19.65749898	     61.28869625	     66.18163491	     37.47033116	     -3.96235616	      0.20731345	     23.60124105	     10.26402959	      5.17361120	      4.55842794	     39.93228537	     13.25824214	      0.91805685	      4.27351100	     24.46256181	     10.51438882	      4.86047635	      4.26600586	    -40.89905958	    -15.23851589	      3.55551004
      1.82000000	     -0.00295518	     -0.15640680	     19.47505067	     20.51089420	    -20.51089420	     18.35050895	     19.65859485	    -19.65859485	     60.93010839	     66.87796269	     37.80807108	     -3.53648558	     -0.41604963	     23.15679312	     10.12964278	      5.00077476	      4.67411781	     40.33151817	     13.15415556	      0.77550666	      3.63818914	     24.21801258	     10.37363250	      5.05011573	      4.43982393	    -41.11337927	    -15.11417649	      3.48313663
      1.82500000	     -0.00305712	     -0.16020235	     20.20082925	     20.52712739	    -20.52712739	     19.05922420	     19.65269224	    -19.65269224	     60.49596775	     67.72150011	     38.21746785	     -3.16988702	     -0.97794279	     22.71521514	      9.99506976	      4.90582947	      4.75623266	     40.66736647	     13.03919811	      0.62419688	      3.06416786	     23.77873887	     10.21438256	      4.87103445	      4.57545577	    -41.52075629	    -15.00770326	      3.35449579
      1.83000000	     -0.00316889	     -0.16397544	     20.91974266	     20.51368896	    -20.51368896	     19.80134230	     19.66136251	    -19.66136251	     60.06935947	     68.55093784	     38.62029730	     -2.79049980	     -1.33205701	     22.47482055	      9.94718483	      5.25790365	      4.57969740	     40.78101928	     12.94886230	      0.41015257	      2.70021136	     23.33029875	     10.11123473	      4.84422780	      4.23614090	    -41.82908989	    -14.89991014	      2.98699624
      1.83500000	     -0.00328526	     -0.16683674	     21.64912107	     20.52359701	    -20.52359701	     20.51191742	     19.64656799	    -19.64656799	     59.74903163	     69.17409159	     38.92312323	     -2.34573448	     -2.01127894	     22.03402208	      9.81207357	      5.20232358	      4.72101278	     41.07465112	     12.83312627	      0.28443599	      1.99874438	     22.90549738	      9.95107482	      4.72211473	      4.46407709	    -42.18676326	    -14.78795259	      2.90679131
      1.84000000	     -0.00338187	     -0.17095861	     22.37831097	     20.53019438	    -20.53019438	     21.24174227	     19.65533426	    -19.65533426	     59.29225961	     70.06320868	     39.35546830	     -2.01091013	     -2.54185194	     21.59197911	      9.68748547	      5.16893426	      4.84712217	     41.35121604	     12.72437429	      0.17964695	      1.45428414	     22.46787113	      9.79780624	      4.67125547	      4.57475681	    -42.48063449	    -14.66471415	      2.78354966
      1.84500000	     -0.00349009	     -0.17476646	     23.13127445	     20.52258133	    -20.52258133	     22.00458315	     19.67386382	    -19.67386382	     58.87503160	     70.87590327	     39.75093487	     -1.63634173	     -2.90862916	     20.95549627	      9.59722109	      4.85202521	      4.53777330	     41.78107951	     12.63094639	     -0.18480099	      1.08363520	     22.01822666	      9.69735955	      4.75778315	      4.22585341	    -42.68608023	    -14.54176413	      2.42403734
      1.85000000	     -0.00361052	     -0.17856670	     23.86515164	     20.51886626	    -20.51886626	     22.74139907	     19.67425234	    -19.67425234	     58.46303136	     71.67893869	     40.14197005	     -1.27103409	     -3.49096085	     20.52184882	      9.47702438	      4.87060381	      4.72770535	     42.01482999	     12.52507638	     -0.24783350	      0.49529583	     21.58580689	      9.54973665	      4.76265898	      4.37788756	    -42.93350413	    -14.41839801	      2.33106458
      1.85500000	     -0.00378441	     -0.18137190	     24.64512178	     20.51464351	    -20.51464351	     23.52809896	     19.67644340	    -19.67644340	     58.16163481	     72.26672797	     40.42836279	     -0.78526646	     -4.03992101	     20.11314344	      9.40229742	      5.08864460	      4.57575783	     42.13931208	     12.41849423	     -0.49727170	     -0.10564365	     21.14100644	      9.43001357	      4.88488169	      4.25452413	    -43.11336520	    -14.28868834	      2.07671472
